<?xml version="1.0" encoding="UTF-8"?>
<svg width="700pt" height="700pt" version="1.1" viewBox="0 0 700 700" xmlns="http://www.w3.org/2000/svg">
 <path d="m350 31.5c-59.5 0-106.75 47.25-106.75 106.75s47.25 106.75 106.75 106.75 106.75-49 106.75-106.75c0-59.5-47.25-106.75-106.75-106.75zm0 35c40.25 0 71.75 31.5 71.75 71.75s-31.5 71.75-71.75 71.75-71.75-31.5-71.75-71.75 31.5-71.75 71.75-71.75zm0 196c-138.25 0-248.5 112-248.5 248.5 0 10.5 8.75 17.5 17.5 17.5h463.75c10.5 0 17.5-8.75 17.5-17.5-1.75-136.5-112-248.5-250.25-248.5zm0 35c112 0 201.25 85.75 210 196h-420c8.75-108.5 98-196 210-196z"/>
</svg>
