<?xml version="1.0" encoding="UTF-8"?>
<svg width="700pt" height="700pt" version="1.1" viewBox="0 0 700 700" xmlns="http://www.w3.org/2000/svg">
 <path d="m354.36 147.79c-4.832-0.019531-8.7656 3.8828-8.7852 8.7148v247c0.019531 4.832 3.9531 8.7344 8.7852 8.7148h240.68c4.8047-0.019532 8.6953-3.9102 8.7148-8.7148v-247c-0.019531-4.8047-3.9102-8.6953-8.7148-8.7148zm8.7344 17.5h75.57v75.18-0.003906c0.011719 3.2695 1.8398 6.2539 4.7422 7.75 2.9062 1.4961 6.3984 1.25 9.0664-0.64063l22.234-15.824 22.148 15.824h-0.003907c2.668 1.8984 6.168 2.1523 9.0781 0.65625 2.9102-1.4961 4.7422-4.4922 4.75-7.7656v-75.18h75.57v229.43h-223.16zm93.07 0h37.016v58.121l-13.449-9.5547v0.003907c-3.0352-2.1562-7.1016-2.1562-10.137 0l-13.43 9.5508zm-241.19 50.566c-2.332-0.007812-4.5703 0.91406-6.2227 2.5664-1.6484 1.6484-2.5703 3.8867-2.5625 6.2188 0.011719 2.3203 0.94141 4.543 2.5898 6.1797 1.6445 1.6328 3.875 2.5469 6.1953 2.5352h61.559c2.3203 0.011719 4.5508-0.90234 6.1953-2.5352 1.6484-1.6367 2.5781-3.8594 2.5898-6.1797 0.007813-2.332-0.91406-4.5703-2.5625-6.2188-1.6523-1.6523-3.8906-2.5742-6.2227-2.5664zm-61.234 57.355h0.003907c-2.3242-0.007812-4.5586 0.90625-6.2031 2.543-1.6484 1.6406-2.5781 3.8672-2.582 6.1914-0.011719 2.332 0.91406 4.5703 2.5625 6.2188 1.6484 1.6484 3.8867 2.5742 6.2227 2.5625h122.79c2.332 0.011719 4.5703-0.91406 6.2227-2.5625 1.6484-1.6484 2.5703-3.8867 2.5625-6.2188-0.007812-2.3242-0.93359-4.5508-2.582-6.1914-1.6484-1.6367-3.8789-2.5508-6.2031-2.543zm-48.703 57.301c-2.3203-0.007812-4.5508 0.90625-6.1992 2.5391-1.6445 1.6367-2.5781 3.8555-2.5859 6.1797-0.007812 2.332 0.91406 4.5703 2.5625 6.2188 1.6484 1.6484 3.8906 2.5742 6.2227 2.5625h171.5c2.332 0.011719 4.5703-0.91406 6.2227-2.5625 1.6484-1.6484 2.5703-3.8867 2.5625-6.2188-0.011718-2.3242-0.94141-4.543-2.5898-6.1797-1.6445-1.6328-3.875-2.5469-6.1953-2.5391z"/>
</svg>
